<?xml version="1.0" encoding="UTF-8" standalone="no"?>
<!-- Created with Inkscape (http://www.inkscape.org/) -->

<svg
   xmlns:dc="http://purl.org/dc/elements/1.1/"
   xmlns:cc="http://creativecommons.org/ns#"
   xmlns:rdf="http://www.w3.org/1999/02/22-rdf-syntax-ns#"
   xmlns:svg="http://www.w3.org/2000/svg"
   xmlns="http://www.w3.org/2000/svg"
   xmlns:sodipodi="http://sodipodi.sourceforge.net/DTD/sodipodi-0.dtd"
   xmlns:inkscape="http://www.inkscape.org/namespaces/inkscape"
   width="202.85568mm"
   height="202.85568mm"
   viewBox="0 0 718.77997 718.77998"
   id="svg2"
   version="1.1"
   inkscape:version="0.91 r13725"
   sodipodi:docname="TaurusDrawing5.svg">
  <defs
     id="defs4">
    <filter
       inkscape:label="Modified combined Lighting"
       inkscape:menu="Bevels"
       inkscape:menu-tooltip="Basic specular bevel to use for building textures"
       style="color-interpolation-filters:sRGB"
       id="filter125483"
       height="1.04"
       width="1.04"
       y="-0.02"
       x="-0.02">
      <feGaussianBlur
         stdDeviation="6"
         in="SourceGraphic"
         result="result0"
         id="feGaussianBlur125485" />
      <feDiffuseLighting
         lighting-color="#ffffff"
         diffuseConstant="1"
         surfaceScale="4"
         result="result5"
         id="feDiffuseLighting125487">
        <feDistantLight
           elevation="45"
           azimuth="235"
           id="feDistantLight125489" />
      </feDiffuseLighting>
      <feComposite
         k1="1.4"
         in2="SourceGraphic"
         in="result5"
         result="fbSourceGraphic"
         operator="arithmetic"
         id="feComposite125491"
         k2="0"
         k3="0"
         k4="0" />
      <feGaussianBlur
         result="result0"
         in="fbSourceGraphic"
         stdDeviation="6"
         id="feGaussianBlur125493" />
      <feSpecularLighting
         specularExponent="25"
         specularConstant="1"
         surfaceScale="4"
         lighting-color="#ffffff"
         result="result1"
         in="result0"
         id="feSpecularLighting125495">
        <feDistantLight
           azimuth="235"
           elevation="45"
           id="feDistantLight125497" />
      </feSpecularLighting>
      <feComposite
         k3="1"
         k2="1"
         operator="arithmetic"
         in="fbSourceGraphic"
         in2="result1"
         result="result4"
         id="feComposite125499"
         k1="0"
         k4="0" />
      <feComposite
         operator="in"
         result="fbSourceGraphic"
         in2="SourceGraphic"
         in="result4"
         id="feComposite125501" />
      <feColorMatrix
         result="fbSourceGraphicAlpha"
         in="fbSourceGraphic"
         values="0 0 0 -1 0 0 0 0 -1 0 0 0 0 -1 0 0 0 0 1 0"
         id="feColorMatrix125639" />
      <feGaussianBlur
         id="feGaussianBlur125641"
         stdDeviation="1.1000000000000001 1.1299999999999999"
         result="blur"
         in="fbSourceGraphic" />
      <feColorMatrix
         id="feColorMatrix125643"
         values="1 0 0 0 0 0 1 0 0 0 0 0 1 0 0 0 0 0 50 0 "
         result="colormatrix" />
      <feComposite
         id="feComposite125645"
         in2="fbSourceGraphic"
         in="colormatrix"
         operator="in" />
    </filter>
    <filter
       inkscape:collect="always"
       style="color-interpolation-filters:sRGB"
       id="filter126673"
       x="-0.099003308"
       width="1.1980066"
       y="-0.099003308"
       height="1.1980066">
      <feGaussianBlur
         inkscape:collect="always"
         stdDeviation="2.4750002"
         id="feGaussianBlur126675" />
    </filter>
  </defs>
  <sodipodi:namedview
     id="base"
     pagecolor="#ffffff"
     bordercolor="#666666"
     borderopacity="1.0"
     inkscape:pageopacity="0.0"
     inkscape:pageshadow="2"
     inkscape:zoom="0.7359693"
     inkscape:cx="359.38999"
     inkscape:cy="359.38999"
     inkscape:document-units="px"
     inkscape:current-layer="layer1"
     showgrid="false"
     inkscape:window-width="1366"
     inkscape:window-height="705"
     inkscape:window-x="-8"
     inkscape:window-y="-8"
     inkscape:window-maximized="1"
     fit-margin-top="0"
     fit-margin-left="0"
     fit-margin-right="0"
     fit-margin-bottom="0" />
  <metadata
     id="metadata7">
    <rdf:RDF>
      <cc:Work
         rdf:about="">
        <dc:format>image/svg+xml</dc:format>
        <dc:type
           rdf:resource="http://purl.org/dc/dcmitype/StillImage" />
        <dc:title></dc:title>
      </cc:Work>
    </rdf:RDF>
  </metadata>
  <g
     inkscape:label="Layer 1"
     inkscape:groupmode="layer"
     id="layer1"
     transform="translate(-20.79896,980.98172)">
    <g
       id="g91385">
      <circle
         transform="matrix(10,0,0,10,-3421.7007,-4530.6759)"
         id="circle124460-9"
         r="29.998999"
         cy="390.90842"
         cx="380.18896"
         style="fill:#000000;fill-opacity:1;stroke:none;stroke-opacity:1;filter:url(#filter126673)" />
      <circle
         transform="matrix(10,0,0,10,-3421.7007,-4530.6759)"
         id="circle124460"
         r="29.998999"
         cy="388.90842"
         cx="378.189"
         style="fill:#f75500;fill-opacity:1;stroke:none;stroke-opacity:1;filter:url(#filter125483)" />
      <path
         style="opacity:0.7"
         id="path4"
         d="m 271.0646,-818.16861 c -6.5575,2.365 -12.49507,6.54234 -17.21757,11.63984 -5.26,5.425 -8.95735,12.65774 -9.66485,20.24024 -0.705,4.2625 -0.6825,8.6575 -0.0875,12.925 1.2025,7.175 6.70969,12.05008 11.46719,17.01758 3.7225,6.3225 -0.75469,14.14718 -7.37969,15.92968 -5.3,1.8425 -10.98781,2.65274 -16.00781,5.22774 -4.815,1.665 -9.61484,3.45742 -14.28984,5.48242 -6.1075,2.5625 -12.28016,5.23266 -17.73516,9.01015 -4.045,2.4325 -7.73984,5.46492 -11.06485,8.80742 -3.9725,3.355 -7.18984,7.64 -9.72734,12.1625 -4.865,7.6225 -6.59266,16.76484 -7.18516,25.66484 l 0,2.31992 c 0.2625,3.5425 0.40494,7.1375 1.45744,10.5625 0.815,3.5075 1.79022,7.11016 3.55272,10.26016 2.1575,5.155 4.8772,10.39242 9.2672,13.98242 1.88,1.9675 6.36772,0.79516 5.97772,-2.23984 -0.0225,-3.1825 -3.00772,-5.14516 -4.90272,-7.36016 -6.5625,-8.23 -7.91,-19.28726 -7.3875,-29.49726 0.515,-9.4025 4.56272,-18.28774 10.32772,-25.61524 3.985,-4.6075 8.61727,-8.595 13.48477,-12.225 1.5175,-0.975 3.07508,-1.89508 4.49258,-3.01758 5.6,-3.2125 11.54242,-5.73999 17.56992,-8.01249 4.3125,-1.3525 8.62531,-2.69734 12.95781,-3.97734 6.445,-2.3025 13.93227,-2.27766 19.69727,-5.99766 0.0675,-0.06 0.20008,-0.18218 0.26758,-0.24218 3.45,-2.485 6.19265,-5.93508 8.03515,-9.75508 2.575,-4.63 4.49485,-9.7225 5.25235,-14.9875 0.72,-4.5125 0.755,-9.41766 -1.2625,-13.61016 -1.8925,-6.08 -5.5125,-11.58484 -6.775,-17.91484 -0.8675,-7.82 1.13007,-16.50766 7.69257,-21.53516 l 0.30977,-0.2 c 1.765,-0.7175 3.555,-3.62992 1.575,-5.04492 l -2.69727,0 z m 97.34999,26.26718 c -6.01541,0.006 -12.06506,0.62742 -17.81756,2.40274 -8.1375,2.815 -14.87008,8.4225 -21.43008,13.825 -12.5125,10.7825 -23.74735,22.9425 -34.85235,35.15 -9.015,10.925 -20.50507,19.56741 -32.85507,26.39491 -9.77,4.8075 -19.12,10.44782 -28,16.74532 -14.6225,12.7825 -26.725,28.985 -32.6,47.65 -5.4425,17.815 -4.95735,37.1475 0.13515,54.9875 2.5525,9.7525 9.7175,17.75734 18.825,21.92734 6.505,3.09 11.02735,10.77266 8.31485,17.84766 -1.545,1.665 -4.74493,2.28468 -4.88243,5.00468 12.9475,16.8775 26.38477,33.45024 38.67227,50.84024 0.4525,1.2875 1.6625,0.53476 2.375,0.0848 3.4625,-1.6775 7.47773,-2.745 11.06523,-3.3375 -9.8425,-12.0375 -20.7625,-24.09242 -26.725,-38.75742 -3.16,-6.9725 -0.76,-14.88508 2.925,-21.14258 4.97,-8.4775 8.15477,-17.85992 10.33477,-27.40742 4.9325,-19.075 7.80016,-39.50758 2.62266,-58.83008 -1.6625,-5.29 -3.405,-10.58992 -5.6125,-15.66992 0.2775,-1.555 2.81007,-1.07226 3.43007,0.10274 9.5325,13.275 13.96227,29.5825 15.22227,45.7125 10.035,3.4725 19.06531,9.35468 27.17031,16.14218 5.1175,4.395 10.145,9.14266 16.45,11.79766 7.4975,3.695 17.16742,4.00484 24.00742,-1.23516 -14.1525,-17.1875 -27.29773,-38.01734 -25.77773,-61.22734 0.365,-8.0375 1.64758,-17.32508 8.46758,-22.58008 -2.9125,-21.865 -0.36985,-44.95726 9.66015,-64.82225 0.835,-1.7275 2.12977,-3.22274 3.62227,-4.40274 0.9575,0.6375 0.77008,1.93774 0.34258,2.85274 -5.26,13.3375 -7.92258,27.72491 -7.68008,42.03241 0.775,6.7175 1.01,13.48734 1.3375,20.22734 -1.635,3.7375 -4.81992,6.62274 -6.09492,10.56524 -6.5825,14.77 -3.09242,31.585 2.68008,46.025 4.32,11.4325 10.02007,23.1675 19.93007,30.825 11.2425,6.01 23.84977,9.6925 33.78477,17.9625 6.39,6.4675 6.35532,16.39468 5.82032,24.85468 -1.2125,11.1625 -10.2975,20.22266 -20.86252,23.14766 -4.31249,4.37 -1.99022,15.15758 5.44728,14.04258 4.7575,-0.3575 8.20524,-4.35742 10.97774,-7.83242 7.6075,-10.225 16.08726,-19.76024 24.09726,-29.65274 2.92,-4.155 7.52266,-9.0775 4.74766,-14.5 -10.49,-14.645 -26.32,-26.57992 -30.7625,-44.78242 0.14,-10.965 2.47726,-24.2025 -6.19024,-32.8 -0.46,-1.4 -4.56484,-2.49984 -2.70234,-3.90234 3.185,-0.5 5.30008,2.37 7.10508,4.5 4.63,5.1675 7.79984,11.695 8.66484,18.6 0.4125,6.86 0.065,13.6025 0.125,20.4625 2.38,2.5275 5.78266,3.73968 8.43516,5.95468 5.2975,4.4425 12.99726,-1.075 14.14726,-6.9625 1.79,-8.7325 4.46032,-17.27734 7.60782,-25.57734 1.125,-2.94 3.78234,-5.90008 4.56484,-8.44258 -0.4125,-1.16 -1.02742,-2.76 -1.99492,-3.3 -11.58,5.6225 -13.98508,19.16524 -18.93008,29.79024 -2.235,3.3025 -1.98758,-1.58274 -1.89258,-3.17774 0.345,-10.0475 0.43008,-20.45226 -2.99492,-30.08476 -6.7025,-14.475 -18.335,-26.13516 -24.125,-41.12266 -2.6575,-6.3525 -4.63244,-13.34008 -3.80742,-20.20508 0.21,-7.9975 0.90008,-16.94976 6.45508,-23.24725 5.0125,-4.5075 12.35734,-2.6975 17.85234,-0.05 11.37,5.7925 20.51266,15.05483 29.23516,24.07733 4.3225,-3.3775 -1.70508,-10.09984 1.19492,-14.02734 10.145,-2.18 19.60758,4.52218 27.24258,10.22968 0.005,-7.425 1.37992,-14.92217 3.05742,-22.05467 -17.4125,-19.1925 -37.49508,-35.99016 -58.88008,-50.57266 -7.97,-5.2725 -16.57734,-11.05992 -26.52734,-10.96992 -1.38048,-0.0577 -2.76692,-0.0892 -4.1551,-0.0879 z m 114.7551,40.98048 c -3.605,2.4475 -7.33008,5.06976 -10.24258,8.24726 -9.195,8.1075 -14.52508,21.25241 -11.96758,33.46991 0.935,5.22 1.49016,11.76508 5.43516,15.55508 0.77,1.2125 2.71476,0.90742 3.97226,0.98242 6.935,0.295 12.8075,-4.84484 15.7625,-10.71484 -0.6775,-0.585 -1.43758,-1.06242 -2.18008,-1.54492 -1.5075,-1.5825 -2.88726,-3.30242 -4.50976,-4.76992 -3.875,-5.855 -6.14242,-13.09999 -4.14492,-20.11249 0.98,-7 5.99226,-12.15282 9.13476,-18.18282 0.8025,-1.195 -0.25726,-2.38468 -1.25976,-2.92968 z m -89.75664,30.16365 c -2.15798,-0.003 -4.30868,0.36142 -6.3836,1.19884 -6.4125,3.4425 -6.77484,11.89984 -6.18984,18.22734 0.0725,6.3625 3.13484,12.1625 6.35234,17.4 1.6725,3.7575 3.64516,7.48734 5.71016,11.02734 6.44,12.615 12.91976,25.52266 15.45976,39.56016 1.8975,-3.2725 5.01024,-5.695 7.51524,-8.3375 0.06,-0.0675 0.18008,-0.20008 0.24258,-0.26758 2.4225,-1.7475 4.78468,-3.9125 6.80468,-6.0375 -1.4275,-10.335 -2.00476,-21.49492 3.26524,-30.91992 2.78,-4.035 6.29476,-7.74758 10.69726,-10.04258 -1.435,-2.33 -3.49484,-4.32984 -5.46484,-6.22734 -2.54,-3.57 -6.01758,-6.54242 -9.19258,-9.54492 -3.965,-4.01 -8.42976,-7.76032 -13.25976,-10.58282 -4.47782,-3.03852 -10.0418,-5.44552 -15.55664,-5.45352 z m 45.30508,9.0797 c -1.38216,-0.0136 -2.71954,0.36522 -3.74844,1.35664 -1.71,3.3225 -0.24516,7.13492 1.51484,10.09492 4.4125,7.005 10.69492,12.815 17.21992,17.7875 2.3125,2.34 5.48024,4.02 8.59024,5.1625 2.31,1.0175 6.26476,-0.0875 5.80976,-3.1375 0.7475,-1.5075 -0.12476,-3.38024 -0.63476,-4.79024 -2.495,-7.1425 -8.235,-12.54468 -13.5,-17.76718 -3.265,-2.8975 -6.61274,-5.95008 -10.76524,-7.46758 -1.29624,-0.70392 -2.91988,-1.22358 -4.48632,-1.23906 z m 112.54686,11.07148 c -0.6685,0.0118 -1.26124,0.3825 -1.4078,1.24766 0.0124,0.9525 0.15726,1.90218 0.25976,2.85468 0.77,7.0925 -0.37476,15.04282 -6.20976,19.83282 -1.1525,1.0075 -2.6,1.555 -3.8,2.475 -4.44,2.185 -9.45258,3.22242 -14.39258,2.83242 -0.54,0.9825 -0.76742,2.0825 -1.06992,3.15 -1.34,4.7375 -1.24766,12.06508 4.01484,14.35508 8.5,0.605 18.35242,0.54726 25.15742,-5.41524 3.795,-3.3575 5.19258,-8.46742 5.85508,-13.30742 l 0,-6.68516 c -0.055,-0.46 -0.15992,-0.90992 -0.25742,-1.35742 -0.5175,-6.495 -2.30516,-13.11984 -5.98516,-18.53984 -0.32062,-0.88032 -1.30494,-1.45784 -2.16446,-1.44258 z m -60.10546,1.22968 c -0.2698,0 -0.53882,0.005 -0.80742,0.0128 -1.0275,0.885 -1.97516,2.02228 -2.62266,3.22228 -1.4125,0.9525 -2.5575,2.59014 -3.525,3.99764 -2.74,2.7475 -5.64984,5.32266 -9.11484,7.19766 -0.8425,4.2875 1.06476,10.19226 -2.49024,13.73477 -5.24,2.735 -11.755,1.08992 -16.675,-1.69258 -4.865,-2.79999 -8.8725,-6.83999 -12.475,-11.08749 -6.0325,-0.6375 -12.13734,3.89756 -13.52734,9.86756 -3.88,10.53751 -2.79008,23.63243 1.75742,34.19493 1.5725,3.8875 5.94,7.05032 6.025,11.28282 -0.6425,5.055 -0.3975,10.59977 0.125,15.79727 0.335,3.955 3.83266,7.38758 7.88516,7.19258 8.95,0.5675 15.91758,-5.825 23.96758,-8.5125 4.045,0.8975 3.05,8.48 7.2125,8.2875 3.055,-0.525 3.6525,-4.47742 4.4125,-6.90742 0.5025,-4.5375 3.50468,-8.04001 6.31718,-11.37501 2.4025,-1.97 4.51282,-4.525 6.75782,-6.4875 3.135,-2.51 6.23234,-5.26024 10.15234,-6.46524 0.3625,-1.9225 0.30508,-4.27476 -0.50742,-6.12226 -2.6475,-3.5475 -8.14742,0.54226 -10.81992,-2.97774 -2.0625,-2.3125 -4.08758,-6.59968 -7.88008,-5.54218 -3.1725,0.4975 -5.61274,-1.97024 -7.72774,-3.84024 -0.2475,-1.65 -1.29484,-4.79992 1.27266,-4.81992 1.71,1.1625 2.45508,3.56016 4.49258,4.41016 2.9325,0.235 5.87976,0.5075 8.70976,1.375 2.245,2.265 4.39516,6.03234 8.16016,4.91484 3.7275,-0.6475 8.07516,0.61234 8.94766,4.77734 8.7725,-4.3675 13.12476,-14.67234 12.24726,-24.15234 -0.4,-11.16751 -7.08758,-22.31493 -17.35508,-26.96993 -0.135,-0.4425 -0.74742,-0.49 -1.13242,-0.6125 -3.57656,-1.83046 -7.7355,-2.70532 -11.78242,-2.70038 z m -28.65234,41.89024 c 0.5775,4.035 1.55718,7.99274 2.86718,11.85274 0.5975,2.635 3.09516,5.4925 0.89766,8.0375 -2.73,1.81 -6.95258,1.13492 -8.91758,-1.53008 -1.4625,-2.9025 -1.63258,-6.28266 -1.11758,-9.44766 0.45,-3.6825 2.38782,-8.1225 6.27032,-8.9125 z m 61.45742,4.83242 c -1.4,5.6 -5.34766,10.43024 -10.53516,13.01524 2.855,1.8175 6.01508,3.66492 8.96758,5.49492 3.8575,2.9525 7.68492,5.98508 11.30742,9.24258 2.1,1.11 3.84258,-1.04742 4.06758,-2.95742 0.38,-5.0775 0.002,-10.82016 -2.69766,-15.22266 -1.955,-4.585 -6.54726,-7.88266 -11.10976,-9.57266 z m -304.03008,31.74766 c 3.4725,12.8975 11.16,24.81516 20.0875,34.88516 8.9075,9.1 4.03742,24.72984 -4.84258,31.82734 0.98,-7.0575 2.1075,-14.29 0.6625,-21.3625 -2.275,-7.305 -7.61227,-13.00758 -11.75977,-19.26758 -6.21,-7.1075 -5.48765,-17.38242 -4.14765,-26.08242 z m 205.80196,2.19219 c -0.74758,-0.0638 -1.16008,0.88453 -1.07696,1.59765 0.2025,4.8875 -0.5325,9.77782 -1.95,14.44532 -0.6825,1.91 -2.08266,3.43742 -2.96016,5.21992 -3.0925,3.245 -7.10234,5.37008 -11.32734,6.78008 2.545,3.01 5.115,6.06218 8.0125,8.74218 2.2925,2.9025 5.145,5.41032 8.025,7.72032 3.895,3.87 8.3225,7.3625 11.2875,12.0875 5.0825,7.76 0.39258,16.46992 -2.00742,24.18242 -2.805,4.57 -7.44008,7.56742 -11.86758,10.46992 -2.695,1.7875 -5.0175,4.89484 -3.9875,8.31484 0.3125,6.2425 9.21758,8.23766 13.50508,5.19766 2.355,-0.99 3.54984,-3.58742 4.78984,-5.70742 4.705,-9.6725 8.24516,-19.92766 13.74766,-29.19766 2.505,-3.6725 4.60976,-7.74258 6.08476,-11.96758 1.04,-4.43 0.0477,-10.06968 -3.89726,-12.76718 -8.16,-9.09 -16.48258,-18.53758 -20.81758,-30.20508 -1.2425,-5.085 -3.27492,-9.96242 -5.21992,-14.81992 -0.12,-0.0541 -0.23382,-0.0839 -0.34062,-0.093 z m -148.60079,6.41445 c -0.25447,0.002 -0.50899,0.0158 -0.76367,0.041 -0.5975,7.5575 -2.70766,15.06726 -4.64766,22.42226 l -0.0473,0.19766 c -1.355,2.825 -2.38,6.3375 -3.5375,9.4375 1.515,-0.855 3.2125,-1.63008 4.5,-2.76758 2.535,-0.8975 5.01985,-1.96484 7.51485,-2.95234 5.1975,-1.4725 10.59515,-2.33508 15.83515,-3.04258 0.1,0.0176 0.29743,0.0473 0.39493,0.0648 4.605,-0.53 9.71242,-0.34258 13.99492,-0.69258 -1.845,-1.78 -4.01985,-3.92742 -6.31485,-5.26992 -4.5125,-4.6025 -9.8125,-9.12258 -15.425,-12.53008 -0.05,-0.38 -0.41,-0.44726 -0.7125,-0.53476 -3.19921,-1.9711 -6.97434,-4.40818 -10.7914,-4.37344 z m 192.18125,5.9832 c -2.22,1.1025 -4.77,1.88532 -6.9125,2.84532 -3.45,0.7775 -6.97,1.98476 -10.55,1.38476 -3.11,-0.105 -6.2725,-1.69984 -9.325,-0.58984 -1.9575,1.2225 -1.28226,3.66 -0.83476,5.475 1.6175,4.46 4.62968,8.59992 8.75468,10.99492 2.42,1.735 5.73782,1.50992 8.59532,1.94492 5.3375,0.135 12.00484,-0.2975 15.21484,-5.3125 1,-2.1725 0.83016,-4.76742 0.37266,-7.04492 -0.1,-3.5625 -0.62524,-9.74766 -5.31524,-9.69766 z m -172.70899,24.10508 c -2.86916,-0.0174 -5.73132,0.11704 -8.54101,0.7625 -4.1625,0.635 -8.4375,2.31 -11.3625,5.425 -0.6925,6.855 -1.2125,13.81508 -3.175,20.46758 -0.915,3.4025 -2.37758,7.01016 -1.26758,10.54766 1.235,3.46 5.12273,4.5275 7.34023,7.1625 6.61,7.675 13.02235,15.51468 19.33985,23.42968 3.5875,-3.81 9.25492,-4.75718 14.24492,-3.97968 -3.3875,-2.7425 -6.8025,-5.73 -10.25,-8.25 -4.2775,-4.2175 -8.81492,-8.42766 -12.75742,-13.03516 -3.11,-4.5325 -6.75492,-9.77 -5.15742,-15.6125 2.185,-7.6575 9.20742,-12.2425 13.38242,-18.6375 0.2501,-0.16526 0.43638,-0.37746 0.57929,-0.61406 1.93381,-2.15258 3.27196,-4.8366 4.31094,-7.51836 -2.21922,-0.0284 -4.45515,-0.13408 -6.68672,-0.14766 z m 63.97657,51.61368 c -0.2587,0.006 -0.51719,0.0269 -0.775,0.0641 -5.6675,0.9725 -11.62743,2.215 -16.39493,5.6 -1.745,0.97 -3.17507,4.93976 -0.38007,5.44726 2.875,0.12 6.39234,-4.15742 8.83984,-1.01992 -0.9275,3.5 -5.58742,5.82992 -5.21992,10.05742 -0.605,3.26 3.75008,4.79508 6.03008,3.03008 4.06,-2.65 8.0625,-5.57242 11.4625,-9.03242 0.6525,-4.265 0.035,-8.84274 1.75,-12.97774 -1.68,-0.55124 -3.50163,-1.21158 -5.3125,-1.16874 z m 52.14882,0.23594 c -4.91566,-0.0273 -9.80578,0.78616 -13.4414,4.52304 -2.2575,0.7 -1.72258,5.30976 0.30742,4.20976 3.7175,-1.535 4.24,3.22008 2.1125,5.53008 -0.845,1.795 -3.9425,3.68242 -2.65,6.00742 3.47,3.8375 10.82508,1.96016 13.36758,-2.08984 0.055,-0.0675 0.16508,-0.205 0.21758,-0.275 3.36,-3.125 1.91508,-8.26234 2.46758,-12.32734 1.0675,-1.26 2.12976,-3.53266 2.49726,-5.34766 -1.59874,-0.11874 -3.23996,-0.22136 -4.87852,-0.23046 z m -101.55273,16.16328 c -2.59053,0.0261 -5.02656,0.95936 -6.53125,3.24218 -2.5525,5.1925 -0.17719,13.15758 5.53281,15.26758 3.505,2.22 8.25719,2.1075 12.30469,1.975 2.615,-0.815 -0.86977,-5.59274 2.46523,-5.92774 3.6425,1.555 6.9075,3.91758 10.5625,5.45508 2.415,0.8625 2.39727,-2.68226 1.44727,-3.42226 -4.3875,-5.9625 -10.79992,-10.68524 -17.50742,-13.82774 -2.20336,-1.65618 -5.33789,-2.79168 -8.27383,-2.7621 z m -34.55625,16.85312 c -1.97764,0.002 -3.99539,0.92984 -5.23242,2.44922 -1.4025,2.98 -0.46508,6.39492 0.74492,9.28242 1.4,5.2075 5.06258,9.39484 10.19258,11.21484 1.7675,0.9375 3.70515,1.47508 5.63515,1.98008 l 0.66485,0 c 5.16,-0.1875 2.23515,-5.03016 0.82265,-7.79766 0.1425,-2.7725 3.09485,-0.55992 4.43985,0.0301 0.7275,0.8475 1.75258,1.34492 2.76758,1.78242 1.8275,1.52 4.13492,2.98016 6.61992,2.68516 1.745,-0.48 1.24008,-3.0175 0.19258,-4 -1.6275,-2.8425 -4.24493,-4.95242 -6.53243,-7.24492 -5.4025,-4.755 -10.72992,-11.09524 -18.74492,-10.20274 l -0.21758,-0.0273 c -0.44203,-0.10266 -0.89635,-0.15182 -1.35273,-0.15156 z"
         inkscape:connector-curvature="0" />
    </g>
  </g>
</svg>
